<svg width="44" height="44" viewBox="0 0 44 44" fill="none" xmlns="http://www.w3.org/2000/svg">
<rect y="0.0673828" width="43.3586" height="43.3586" rx="11.0176" fill="white"/>
<mask id="path-2-inside-1_264_137" fill="white">
<path d="M35.549 16.4887C34.8779 14.5626 33.8144 12.7967 32.4257 11.3028L21.628 21.3394L35.549 16.4887Z"/>
</mask>
<path d="M35.549 16.4887C34.8779 14.5626 33.8144 12.7967 32.4257 11.3028L21.628 21.3394L35.549 16.4887Z" fill="#1937AD" stroke="#1937AD" stroke-width="10.4061" stroke-linejoin="round" mask="url(#path-2-inside-1_264_137)"/>
<mask id="path-3-inside-2_264_137" fill="white">
<path d="M35.1764 27.1502C35.9303 25.3923 36.335 23.5045 36.3678 21.592L21.628 21.3393L35.1764 27.1502Z"/>
</mask>
<path d="M35.1764 27.1502C35.9303 25.3923 36.335 23.5045 36.3678 21.592L21.628 21.3393L35.1764 27.1502Z" fill="#1937AD" stroke="#1937AD" stroke-width="10.4061" stroke-linejoin="round" mask="url(#path-3-inside-2_264_137)"/>
<mask id="path-4-inside-3_264_137" fill="white">
<path d="M26.739 35.167C28.7889 34.4093 30.6447 33.2052 32.1721 31.6421L21.628 21.3394L26.739 35.167Z"/>
</mask>
<path d="M26.739 35.167C28.7889 34.4093 30.6447 33.2052 32.1721 31.6421L21.628 21.3394L26.739 35.167Z" fill="#1937AD" stroke="#1937AD" stroke-width="10.4061" stroke-linejoin="round" mask="url(#path-4-inside-3_264_137)"/>
<mask id="path-5-inside-4_264_137" fill="white">
<path d="M11.2038 10.915C9.1421 12.9767 7.73807 15.6034 7.16925 18.4631C6.60043 21.3227 6.89237 24.2869 8.00815 26.9806C9.12393 29.6743 11.0134 31.9767 13.4377 33.5966C15.862 35.2164 18.7122 36.081 21.6279 36.081L21.6279 21.3391L11.2038 10.915Z"/>
</mask>
<path d="M11.2038 10.915C9.1421 12.9767 7.73807 15.6034 7.16925 18.4631C6.60043 21.3227 6.89237 24.2869 8.00815 26.9806C9.12393 29.6743 11.0134 31.9767 13.4377 33.5966C15.862 35.2164 18.7122 36.081 21.6279 36.081L21.6279 21.3391L11.2038 10.915Z" fill="#1937AD" stroke="#1937AD" stroke-width="10.4061" stroke-linejoin="round" mask="url(#path-5-inside-4_264_137)"/>
</svg>
