<svg width="32" height="32" viewBox="0 0 32 32" fill="none" xmlns="http://www.w3.org/2000/svg">
<rect y="0.258423" width="31.4831" height="31.4831" rx="8" fill="#1937AD"/>
<mask id="path-2-inside-1_147_1254" fill="white">
<path d="M8.13521 8.13524C6.63819 9.63226 5.61871 11.5396 5.20568 13.616C4.79265 15.6924 5.00463 17.8447 5.81481 19.8006C6.62499 21.7566 7.99699 23.4284 9.7573 24.6046C11.5176 25.7808 13.5872 26.4086 15.7043 26.4086C17.8214 26.4086 19.8909 25.7808 21.6512 24.6046C23.4115 23.4284 24.7835 21.7566 25.5937 19.8006C26.4039 17.8447 26.6159 15.6924 26.2029 13.616C25.7898 11.5396 24.7703 9.63226 23.2733 8.13524L15.7043 15.7043L8.13521 8.13524Z"/>
</mask>
<path d="M8.13521 8.13524C6.63819 9.63226 5.61871 11.5396 5.20568 13.616C4.79265 15.6924 5.00463 17.8447 5.81481 19.8006C6.62499 21.7566 7.99699 23.4284 9.7573 24.6046C11.5176 25.7808 13.5872 26.4086 15.7043 26.4086C17.8214 26.4086 19.8909 25.7808 21.6512 24.6046C23.4115 23.4284 24.7835 21.7566 25.5937 19.8006C26.4039 17.8447 26.6159 15.6924 26.2029 13.616C25.7898 11.5396 24.7703 9.63226 23.2733 8.13524L15.7043 15.7043L8.13521 8.13524Z" fill="white" stroke="white" stroke-width="7.55595" stroke-linejoin="round" mask="url(#path-2-inside-1_147_1254)"/>
<mask id="path-3-inside-2_147_1254" fill="white">
<path d="M8.13521 8.13524C6.78262 9.48782 5.81719 11.1781 5.33936 13.0303C4.86153 14.8825 4.88875 16.8289 5.41819 18.6671C5.94763 20.5052 6.95995 22.1678 8.34983 23.4821C9.73971 24.7963 11.4564 25.7141 13.3212 26.1399C15.186 26.5658 17.1309 26.4841 18.9535 25.9035C20.7761 25.3229 22.4098 24.2644 23.6847 22.8384C24.9595 21.4123 25.8289 19.6706 26.2025 17.7946C26.576 15.9186 26.44 13.9767 25.8086 12.1711L15.7043 15.7043L8.13521 8.13524Z"/>
</mask>
<path d="M8.13521 8.13524C6.78262 9.48782 5.81719 11.1781 5.33936 13.0303C4.86153 14.8825 4.88875 16.8289 5.41819 18.6671C5.94763 20.5052 6.95995 22.1678 8.34983 23.4821C9.73971 24.7963 11.4564 25.7141 13.3212 26.1399C15.186 26.5658 17.1309 26.4841 18.9535 25.9035C20.7761 25.3229 22.4098 24.2644 23.6847 22.8384C24.9595 21.4123 25.8289 19.6706 26.2025 17.7946C26.576 15.9186 26.44 13.9767 25.8086 12.1711L15.7043 15.7043L8.13521 8.13524Z" fill="#1937AD" stroke="#1937AD" stroke-width="7.55595" stroke-linejoin="round" mask="url(#path-3-inside-2_147_1254)"/>
<mask id="path-4-inside-3_147_1254" fill="white">
<path d="M8.13521 8.13524C6.89047 9.37998 5.97192 10.9125 5.46092 12.597C4.94993 14.2815 4.86226 16.0661 5.20568 17.7926C5.5491 19.5191 6.31302 21.1343 7.42976 22.495C8.5465 23.8558 9.98159 24.9201 11.6079 25.5938C13.2343 26.2674 15.0016 26.5296 16.7535 26.357C18.5053 26.1845 20.1876 25.5826 21.6512 24.6046C23.1149 23.6266 24.3148 22.3027 25.1446 20.7503C25.9744 19.1978 26.4085 17.4646 26.4085 15.7043H15.7043L8.13521 8.13524Z"/>
</mask>
<path d="M8.13521 8.13524C6.89047 9.37998 5.97192 10.9125 5.46092 12.597C4.94993 14.2815 4.86226 16.0661 5.20568 17.7926C5.5491 19.5191 6.31302 21.1343 7.42976 22.495C8.5465 23.8558 9.98159 24.9201 11.6079 25.5938C13.2343 26.2674 15.0016 26.5296 16.7535 26.357C18.5053 26.1845 20.1876 25.5826 21.6512 24.6046C23.1149 23.6266 24.3148 22.3027 25.1446 20.7503C25.9744 19.1978 26.4085 17.4646 26.4085 15.7043H15.7043L8.13521 8.13524Z" fill="white" stroke="white" stroke-width="7.55595" stroke-linejoin="round" mask="url(#path-4-inside-3_147_1254)"/>
<mask id="path-5-inside-4_147_1254" fill="white">
<path d="M8.13521 8.13524C7.02099 9.24945 6.16651 10.5959 5.63277 12.0785C5.09903 13.5611 4.8992 15.1433 5.04754 16.712C5.19588 18.2807 5.68873 19.7974 6.49091 21.1536C7.29309 22.5099 8.38481 23.6724 9.68813 24.558C10.9915 25.4436 12.4742 26.0305 14.0306 26.2769C15.5869 26.5233 17.1785 26.423 18.6916 25.9833C20.2048 25.5435 21.6021 24.7751 22.784 23.7329C23.9659 22.6907 24.9031 21.4005 25.5287 19.9542L15.7043 15.7043L8.13521 8.13524Z"/>
</mask>
<path d="M8.13521 8.13524C7.02099 9.24945 6.16651 10.5959 5.63277 12.0785C5.09903 13.5611 4.8992 15.1433 5.04754 16.712C5.19588 18.2807 5.68873 19.7974 6.49091 21.1536C7.29309 22.5099 8.38481 23.6724 9.68813 24.558C10.9915 25.4436 12.4742 26.0305 14.0306 26.2769C15.5869 26.5233 17.1785 26.423 18.6916 25.9833C20.2048 25.5435 21.6021 24.7751 22.784 23.7329C23.9659 22.6907 24.9031 21.4005 25.5287 19.9542L15.7043 15.7043L8.13521 8.13524Z" fill="#1937AD" stroke="#1937AD" stroke-width="7.55595" stroke-linejoin="round" mask="url(#path-5-inside-4_147_1254)"/>
<mask id="path-6-inside-5_147_1254" fill="white">
<path d="M8.13521 8.13524C6.12777 10.1427 5 12.8654 5 15.7043C5 18.5432 6.12777 21.2659 8.13521 23.2734C10.1426 25.2808 12.8653 26.4086 15.7043 26.4086C18.5432 26.4086 21.2659 25.2808 23.2733 23.2734L15.7043 15.7043L8.13521 8.13524Z"/>
</mask>
<path d="M8.13521 8.13524C6.12777 10.1427 5 12.8654 5 15.7043C5 18.5432 6.12777 21.2659 8.13521 23.2734C10.1426 25.2808 12.8653 26.4086 15.7043 26.4086C18.5432 26.4086 21.2659 25.2808 23.2733 23.2734L15.7043 15.7043L8.13521 8.13524Z" fill="white" stroke="white" stroke-width="7.55595" stroke-linejoin="round" mask="url(#path-6-inside-5_147_1254)"/>
<mask id="path-7-inside-6_147_1254" fill="white">
<path d="M8.13521 8.13524C6.40958 9.86086 5.32541 12.1243 5.06236 14.5505C4.79932 16.9767 5.3732 19.4199 6.68889 21.4753C8.00458 23.5306 9.9831 25.0747 12.2965 25.8516C14.61 26.6286 17.1194 26.5916 19.409 25.747L15.7043 15.7043L8.13521 8.13524Z"/>
</mask>
<path d="M8.13521 8.13524C6.40958 9.86086 5.32541 12.1243 5.06236 14.5505C4.79932 16.9767 5.3732 19.4199 6.68889 21.4753C8.00458 23.5306 9.9831 25.0747 12.2965 25.8516C14.61 26.6286 17.1194 26.5916 19.409 25.747L15.7043 15.7043L8.13521 8.13524Z" fill="#1937AD" stroke="#1937AD" stroke-width="7.55595" stroke-linejoin="round" mask="url(#path-7-inside-6_147_1254)"/>
<mask id="path-8-inside-7_147_1254" fill="white">
<path d="M8.13521 8.13524C6.63819 9.63226 5.61871 11.5396 5.20568 13.616C4.79265 15.6924 5.00463 17.8447 5.81481 19.8006C6.62499 21.7566 7.99699 23.4284 9.7573 24.6046C11.5176 25.7808 13.5872 26.4086 15.7043 26.4086L15.7043 15.7043L8.13521 8.13524Z"/>
</mask>
<path d="M8.13521 8.13524C6.63819 9.63226 5.61871 11.5396 5.20568 13.616C4.79265 15.6924 5.00463 17.8447 5.81481 19.8006C6.62499 21.7566 7.99699 23.4284 9.7573 24.6046C11.5176 25.7808 13.5872 26.4086 15.7043 26.4086L15.7043 15.7043L8.13521 8.13524Z" fill="white" stroke="white" stroke-width="7.55595" stroke-linejoin="round" mask="url(#path-8-inside-7_147_1254)"/>
</svg>
